<svg xmlns="http://www.w3.org/2000/svg" viewBox="0 0 211 71" width="211" height="71">
  <!-- Official Python Logo - Two intertwined snakes forming a plus shape -->
  <!-- Colors: Blue #366D9C and Yellow #FFDB4C -->
  <defs>
    <linearGradient id="blueGradient" x1="0%" y1="0%" x2="100%" y2="100%">
      <stop offset="0%" style="stop-color:#5A9FD4"/>
      <stop offset="100%" style="stop-color:#366D9C"/>
    </linearGradient>
    <linearGradient id="yellowGradient" x1="0%" y1="0%" x2="100%" y2="100%">
      <stop offset="0%" style="stop-color:#FFDB4C"/>
      <stop offset="100%" style="stop-color:#FFD43B"/>
    </linearGradient>
  </defs>

  <!-- Blue snake (top-left, curves down-right) -->
  <path fill="url(#blueGradient)" d="
    M35.5 5.5
    C35.5 2.5 33 0 30 0
    L15.5 0
    C7 0 0 7 0 15.5
    L0 30
    C0 33 2.5 35.5 5.5 35.5
    L25 35.5
    C28 35.5 30.5 38 30.5 41
    L30.5 50
    L20 50
    L20 35.5
    L5.5 35.5
    C2.5 35.5 0 33 0 30
    L0 15.5
    C0 7 7 0 15.5 0
    L30 0
    C33 0 35.5 2.5 35.5 5.5
    L35.5 20
    L30.5 20
    L30.5 5.5
    C30.5 4 29 2.5 27.5 2.5
    L15.5 2.5
    C8.5 2.5 2.5 8.5 2.5 15.5
    L2.5 27.5
    C2.5 29 4 30.5 5.5 30.5
    L25 30.5
    C30.5 30.5 35.5 35.5 35.5 41
    L35.5 55
    L30.5 55
    L30.5 41
    C30.5 38 28 35.5 25 35.5
    L20 35.5
    L20 50
    L30.5 50
    L30.5 41
    L35.5 41
    Z
  " transform="translate(5, 5)"/>

  <!-- Simplified Python logo mark -->
  <g transform="translate(5, 5)">
    <!-- Blue half (top) -->
    <path fill="url(#blueGradient)" d="
      M30.2 0
      C18.8 0 17.5 5 17.5 5
      L17.5 13
      L30.5 13
      L30.5 15
      L11 15
      C11 15 0 13.8 0 30.5
      C0 47.2 9.6 46.5 9.6 46.5
      L15.5 46.5
      L15.5 38.2
      C15.5 38.2 15.1 28.5 25 28.5
      L37.8 28.5
      C37.8 28.5 47 28.7 47 19.8
      L47 6.8
      C47 6.8 48.4 0 30.2 0
      M22.1 6.5
      C23.8 6.5 25.2 7.9 25.2 9.6
      C25.2 11.3 23.8 12.7 22.1 12.7
      C20.4 12.7 19 11.3 19 9.6
      C19 7.9 20.4 6.5 22.1 6.5
    "/>

    <!-- Yellow half (bottom) -->
    <path fill="url(#yellowGradient)" d="
      M47.8 15
      C47.8 15 47 15 47 15
      L47 23.3
      C47 23.3 47.4 33 37.5 33
      L24.7 33
      C24.7 33 15.5 32.8 15.5 41.7
      L15.5 54.7
      C15.5 54.7 14.1 61.5 32.3 61.5
      C43.7 61.5 45 56.5 45 56.5
      L45 48.5
      L32 48.5
      L32 46.5
      L51.5 46.5
      C51.5 46.5 62.5 47.7 62.5 31
      C62.5 14.3 52.9 15 52.9 15
      L47.8 15
      M40.4 55
      C38.7 55 37.3 53.6 37.3 51.9
      C37.3 50.2 38.7 48.8 40.4 48.8
      C42.1 48.8 43.5 50.2 43.5 51.9
      C43.5 53.6 42.1 55 40.4 55
    " transform="translate(0, 0)"/>
  </g>

  <!-- "Python" text -->
  <text x="80" y="42" font-family="'Source Sans Pro', Arial, sans-serif" font-size="28" font-weight="600" fill="#646464">
    <tspan fill="#366D9C">Py</tspan><tspan fill="#FFDB4C">thon</tspan>
  </text>
</svg>
