<svg xmlns="http://www.w3.org/2000/svg" viewBox="0 0 112 32" width="112" height="32">
  <!-- Mozilla wordmark logo - White on transparent -->
  <title>Mozilla</title>
  <g fill="#ffffff">
    <!-- M -->
    <path d="M2.5 6.5h5.3l4.2 13.8L16.2 6.5h5.3v19h-3.4V10.9l-4.5 14.6h-3.2L5.9 10.9v14.6H2.5V6.5z"/>
    <!-- o -->
    <path d="M25.9 14.8c0-4.6 3.2-7.3 7.2-7.3s7.2 2.7 7.2 7.3v3.9c0 4.6-3.2 7.3-7.2 7.3s-7.2-2.7-7.2-7.3v-3.9zm3.4 4c0 2.5 1.5 4.1 3.8 4.1s3.8-1.6 3.8-4.1v-4.1c0-2.5-1.5-4.1-3.8-4.1s-3.8 1.6-3.8 4.1v4.1z"/>
    <!-- z -->
    <path d="M43.5 7.5h12.4v2.7l-8.3 13.5h8.5v2.8H43.2v-2.7l8.3-13.5h-8V7.5z"/>
    <!-- i -->
    <path d="M58.8 2.5h3.4v4h-3.4v-4zm0 5h3.4v18h-3.4v-18z"/>
    <!-- l -->
    <path d="M66.2 2.5h3.4v23h-3.4v-23z"/>
    <!-- l -->
    <path d="M73.6 2.5h3.4v23h-3.4v-23z"/>
    <!-- a -->
    <path d="M81 14.5c0-4.5 2.9-7 6.8-7 3.9 0 6.5 2.3 6.5 6.3v11.7h-3.1v-2.2c-.9 1.6-2.5 2.5-4.6 2.5-2.8 0-5-1.7-5-4.7 0-3.1 2.4-4.8 6.1-4.8h3.2v-1c0-2-1.1-3.4-3.4-3.4-2.1 0-3.3 1.2-3.4 3.1H81.1l-.1-1.5zm9.9 3.6h-2.7c-2.1 0-3.3.8-3.3 2.4 0 1.5 1.1 2.4 2.9 2.4 2.4 0 4.1-1.5 4.1-3.9v-.9z"/>
  </g>
  <!-- The "://" decoration commonly seen with Mozilla branding -->
  <g fill="#b72822">
    <text x="95" y="24" font-family="Georgia, serif" font-size="16" font-weight="bold">://</text>
  </g>
</svg>
